<?xml version="1.0" encoding="UTF-8" standalone="no"?>
<svg
   width="150"
   height="380"
   viewBox="0 0 150 380"
   version="1.1"
   xml:space="preserve"
   id="svg2"
   sodipodi:docname="Blank.svg"
   inkscape:version="1.4 (86a8ad7, 2024-10-11)"
   xmlns:inkscape="http://www.inkscape.org/namespaces/inkscape"
   xmlns:sodipodi="http://sodipodi.sourceforge.net/DTD/sodipodi-0.dtd"
   xmlns="http://www.w3.org/2000/svg"
   xmlns:svg="http://www.w3.org/2000/svg"><defs
   id="defs1" /><sodipodi:namedview
   id="namedview1"
   pagecolor="#ffffff"
   bordercolor="#000000"
   borderopacity="0.25"
   inkscape:showpageshadow="2"
   inkscape:pageopacity="0.0"
   inkscape:pagecheckerboard="0"
   inkscape:deskcolor="#d1d1d1"
   inkscape:zoom="3.3271235"
   inkscape:cx="84.30706"
   inkscape:cy="214.59979"
   inkscape:window-width="3840"
   inkscape:window-height="2054"
   inkscape:window-x="-11"
   inkscape:window-y="-11"
   inkscape:window-maximized="1"
   inkscape:current-layer="svg2" />

<rect
   id="panel"
   style="fill:#e6e6e6"
   x="0"
   y="0"
   width="150"
   height="380" /><circle
   id="logo"
   style="fill:none;stroke:#272727;stroke-width:4;stroke-linejoin:round"
   cx="75"
   cy="40"
   r="30" />

<!-- Logo -->


<!-- Knobs -->
<circle
   id="FreqKnob"
   cx="75"
   cy="180"
   r="15"
   style="fill:#808080" />
<circle
   id="FineKnob"
   cx="75"
   cy="220"
   r="12"
   style="fill:#808080" />

<!-- Input Jacks -->
<circle
   id="Input1"
   cx="45"
   cy="280"
   r="8"
   style="fill:#404040" />
<circle
   id="Input2"
   cx="105"
   cy="280"
   r="8"
   style="fill:#404040" />

<!-- Output Jacks -->
<circle
   id="Output1"
   cx="45"
   cy="340"
   r="8"
   style="fill:#404040" />
<circle
   id="Output2"
   cx="105"
   cy="340"
   r="8"
   style="fill:#404040" />

<!-- Lights -->
<circle
   id="ClipLight"
   cx="75"
   cy="110"
   r="3"
   style="fill:#ff0000" />
<circle
   id="FreqLight"
   cx="75"
   cy="142"
   r="3"
   style="fill:#00ff00" />

<g
   inkscape:groupmode="layer"
   id="layer1"
   inkscape:label="Text"><text
     xml:space="preserve"
     style="font-style:normal;font-variant:normal;font-weight:normal;font-stretch:normal;font-size:17.3333px;font-family:Nunito;-inkscape-font-specification:Nunito;text-align:start;writing-mode:lr-tb;direction:ltr;text-anchor:start;white-space:pre;inline-size:0;fill:#00ffff;stroke:#585858;stroke-width:1.8;stroke-linejoin:round;stroke-dasharray:none;paint-order:markers fill stroke"
     x="59.295303"
     y="153.08725"
     id="text1"
     transform="translate(-2.0297008,-106.97726)"><tspan
       id="tspan1"
       x="59.295303"
       y="153.08725"
       style="font-size:17.3333px">VCO</tspan></text><text
     xml:space="preserve"
     style="font-style:normal;font-variant:normal;font-weight:200;font-stretch:normal;font-size:5.33333px;font-family:Nunito;-inkscape-font-specification:'Nunito Ultra-Light';text-align:start;writing-mode:lr-tb;direction:ltr;text-anchor:start;fill:#00ffff;stroke:#585858;stroke-width:0.5;stroke-linejoin:round;stroke-dasharray:none;paint-order:markers fill stroke"
     x="68.008949"
     y="200.35345"
     id="text2"><tspan
       sodipodi:role="line"
       id="tspan2"
       x="68.008949"
       y="200.35345">FREQ</tspan></text><text
     xml:space="preserve"
     style="font-style:normal;font-variant:normal;font-weight:200;font-stretch:normal;font-size:5.33333px;font-family:Nunito;-inkscape-font-specification:'Nunito Ultra-Light';text-align:start;writing-mode:lr-tb;direction:ltr;text-anchor:start;fill:#00ffff;stroke:#585858;stroke-width:0.5;stroke-linejoin:round;stroke-dasharray:none;paint-order:markers fill stroke"
     x="37.896671"
     y="266.45312"
     id="text2-45"><tspan
       sodipodi:role="line"
       id="tspan2-5"
       x="37.896671"
       y="266.45312">VOCT</tspan></text><text
     xml:space="preserve"
     style="font-style:normal;font-variant:normal;font-weight:200;font-stretch:normal;font-size:5.33333px;font-family:Nunito;-inkscape-font-specification:'Nunito Ultra-Light';text-align:start;writing-mode:lr-tb;direction:ltr;text-anchor:start;fill:#00ffff;stroke:#585858;stroke-width:0.5;stroke-linejoin:round;stroke-dasharray:none;paint-order:markers fill stroke"
     x="39.644894"
     y="326.34763"
     id="text2-45-7"><tspan
       sodipodi:role="line"
       id="tspan2-5-6"
       x="39.644894"
       y="326.34763">SQR</tspan></text><text
     xml:space="preserve"
     style="font-style:normal;font-variant:normal;font-weight:200;font-stretch:normal;font-size:5.33333px;font-family:Nunito;-inkscape-font-specification:'Nunito Ultra-Light';text-align:start;writing-mode:lr-tb;direction:ltr;text-anchor:start;fill:#00ffff;stroke:#585858;stroke-width:0.5;stroke-linejoin:round;stroke-dasharray:none;paint-order:markers fill stroke"
     x="101.33334"
     y="326.82141"
     id="text2-45-7-2"><tspan
       sodipodi:role="line"
       id="tspan2-5-6-3"
       x="101.33334"
       y="326.82141">TRI</tspan></text><text
     xml:space="preserve"
     style="font-style:normal;font-variant:normal;font-weight:200;font-stretch:normal;font-size:5.33333px;font-family:Nunito;-inkscape-font-specification:'Nunito Ultra-Light';text-align:start;writing-mode:lr-tb;direction:ltr;text-anchor:start;fill:#00ffff;stroke:#585858;stroke-width:0.5;stroke-linejoin:round;stroke-dasharray:none;paint-order:markers fill stroke"
     x="101.32534"
     y="266.45312"
     id="text2-45-1"><tspan
       sodipodi:role="line"
       id="tspan2-5-1"
       x="101.32534"
       y="266.45312">FM</tspan></text><text
     xml:space="preserve"
     style="font-style:normal;font-variant:normal;font-weight:200;font-stretch:normal;font-size:5.33333px;font-family:Nunito;-inkscape-font-specification:'Nunito Ultra-Light';text-align:start;writing-mode:lr-tb;direction:ltr;text-anchor:start;fill:#00ffff;stroke:#585858;stroke-width:0.5;stroke-linejoin:round;stroke-dasharray:none;paint-order:markers fill stroke"
     x="69.336006"
     y="240.4151"
     id="text2-4"><tspan
       sodipodi:role="line"
       id="tspan2-8"
       x="69.336006"
       y="240.4151">FINE</tspan></text></g><g
   inkscape:groupmode="layer"
   id="g9"
   inkscape:label="Text"><path
     d="m 63.245591,46.23132 q -0.329333,0 -0.537333,-0.156 -0.207999,-0.156 -0.329332,-0.468 L 57.612268,34.704678 q -0.121333,-0.29467 -0.06933,-0.48533 0.052,-0.208 0.225333,-0.32934 0.190666,-0.12133 0.433333,-0.12133 0.329332,0 0.485332,0.156 0.173333,0.13867 0.277333,0.416 L 63.54026,44.96599 h -0.554666 l 4.558658,-10.642642 q 0.121333,-0.26 0.294666,-0.39867 0.173333,-0.156 0.485333,-0.156 0.242666,0 0.398665,0.12133 0.173333,0.12134 0.208,0.32934 0.052,0.208 -0.06933,0.48533 L 64.094928,45.60732 q -0.121333,0.312 -0.329332,0.468 -0.190667,0.156 -0.519999,0.156 z m 12.472874,0.0347 q -1.802664,0 -3.085328,-0.76267 -1.282664,-0.76266 -1.975996,-2.16666 -0.675999,-1.404002 -0.675999,-3.345332 0,-1.45599 0.381333,-2.59999 0.398666,-1.16133 1.126665,-1.95866 0.745331,-0.81467 1.819996,-1.248 1.074665,-0.45067 2.409329,-0.45067 1.074664,0 2.045329,0.312 0.970665,0.29467 1.68133,0.884 0.225333,0.17333 0.294666,0.39867 0.08667,0.208 0.01733,0.416 -0.052,0.19066 -0.207999,0.32933 -0.138667,0.12133 -0.346666,0.12133 -0.208,0 -0.467999,-0.17333 -0.623999,-0.50267 -1.369331,-0.74533 -0.745332,-0.24267 -1.611997,-0.24267 -1.36933,0 -2.322662,0.58933 -0.953331,0.572 -1.438664,1.68133 -0.485332,1.10933 -0.485332,2.68666 0,1.57734 0.485332,2.704002 0.485333,1.10933 1.438664,1.69866 0.953332,0.572 2.322662,0.572 0.849332,0 1.611997,-0.24266 0.762665,-0.26 1.403997,-0.76267 0.26,-0.17333 0.467999,-0.156 0.208,0 0.346666,0.12133 0.138667,0.12134 0.190667,0.312 0.06933,0.19067 0,0.39867 -0.052,0.208 -0.26,0.364 -0.727998,0.624 -1.715996,0.95333 -0.970665,0.312 -2.079996,0.312 z m 11.13821,0 q -1.698663,0 -2.963994,-0.76267 -1.247997,-0.77999 -1.941329,-2.18399 -0.675999,-1.404002 -0.675999,-3.328002 0,-1.45599 0.381332,-2.59999 0.398666,-1.16133 1.126665,-1.95866 0.727999,-0.81467 1.750663,-1.248 1.039998,-0.45067 2.322662,-0.45067 1.73333,0 2.981328,0.76267 1.265331,0.76266 1.941329,2.16666 0.693332,1.38667 0.693332,3.31066 0,1.456 -0.398665,2.617332 -0.398666,1.16133 -1.126665,1.976 -0.727998,0.81466 -1.767996,1.26533 -1.022665,0.43333 -2.322663,0.43333 z m 0,-1.26533 q 1.317331,0 2.218663,-0.58933 0.918665,-0.58934 1.403997,-1.716 0.485332,-1.126662 0.485332,-2.704002 0,-2.37466 -1.074664,-3.67465 -1.057331,-1.31734 -3.033328,-1.31734 -1.282664,0 -2.201329,0.58934 -0.901331,0.58933 -1.386664,1.71599 -0.485332,1.10933 -0.485332,2.68666 0,2.357332 1.074665,3.692002 1.074664,1.31733 2.99866,1.31733 z"
     id="text3"
     style="font-size:17.3333px;font-family:Nunito;-inkscape-font-specification:Nunito;white-space:pre;fill:#00ffff;stroke:#585858;stroke-width:1.8;stroke-linejoin:round;paint-order:markers fill stroke"
     aria-label="VCO" /><path
     d="m 68.654282,200.38545 q -0.064,0 -0.101333,-0.032 -0.032,-0.0373 -0.032,-0.10133 v -3.52533 q 0,-0.064 0.032,-0.096 0.03733,-0.0373 0.101333,-0.0373 h 1.994666 q 0.05333,0 0.08,0.0267 0.032,0.0267 0.032,0.0747 0,0.0533 -0.032,0.08 -0.02667,0.0267 -0.08,0.0267 h -1.903999 v 1.54133 h 1.797332 q 0.05333,0 0.08,0.0267 0.032,0.0267 0.032,0.0747 0,0.0533 -0.032,0.08 -0.02667,0.0267 -0.08,0.0267 h -1.797332 v 1.70133 q 0,0.13333 -0.09067,0.13333 z m 2.837328,0 q -0.05333,0 -0.08533,-0.032 -0.02667,-0.032 -0.02667,-0.0853 v -3.55733 q 0,-0.0587 0.032,-0.0853 0.032,-0.032 0.08533,-0.032 h 1.242666 q 0.592,0 0.906666,0.272 0.314667,0.272 0.314667,0.77866 0,0.32534 -0.144,0.56 -0.144,0.22934 -0.421333,0.352 -0.272,0.11734 -0.656,0.11734 l 0.05867,-0.064 h 0.04267 q 0.202666,0 0.346666,0.10666 0.149333,0.10667 0.277333,0.34667 l 0.613333,1.14133 q 0.02667,0.0427 0.02133,0.0853 0,0.0427 -0.02667,0.0693 -0.02133,0.0267 -0.05867,0.0267 -0.048,0 -0.08,-0.0267 -0.02667,-0.0213 -0.048,-0.0587 l -0.618666,-1.152 q -0.149333,-0.27733 -0.330666,-0.368 -0.181334,-0.0907 -0.496,-0.0907 H 71.60361 v 1.57866 q 0,0.0533 -0.02667,0.0853 -0.02667,0.032 -0.08533,0.032 z m 0.112,-1.90399 h 1.114666 q 0.506666,0 0.757333,-0.21334 0.250666,-0.21333 0.250666,-0.62933 0,-0.41067 -0.250666,-0.624 -0.250667,-0.21333 -0.757333,-0.21333 H 71.60361 Z m 3.397328,1.87199 q -0.064,0 -0.101333,-0.032 -0.032,-0.0373 -0.032,-0.10133 v -3.49333 q 0,-0.064 0.032,-0.096 0.03733,-0.0373 0.101333,-0.0373 h 2.047999 q 0.05333,0 0.08,0.0267 0.032,0.0267 0.032,0.0747 0,0.0533 -0.032,0.08 -0.02667,0.0267 -0.08,0.0267 h -1.957332 v 1.54133 h 1.850665 q 0.05333,0 0.08,0.0267 0.032,0.0267 0.032,0.0747 0,0.0533 -0.032,0.08 -0.02667,0.0267 -0.08,0.0267 h -1.850665 v 1.59466 h 1.957332 q 0.05333,0 0.08,0.0267 0.032,0.0267 0.032,0.0747 0,0.0533 -0.032,0.08 -0.02667,0.0267 -0.08,0.0267 z m 5.541333,0.8 q 0.032,0.048 0.032,0.0853 0,0.0427 -0.02133,0.0693 -0.02133,0.0267 -0.05867,0.032 -0.032,0.0107 -0.06933,-0.0107 -0.032,-0.016 -0.064,-0.064 l -0.32,-0.51733 q -0.101333,-0.17067 -0.272,-0.26133 -0.170667,-0.0907 -0.4,-0.0907 l 0.213333,-0.10667 q 0.256,0 0.394667,0.0853 0.144,0.0907 0.293333,0.34133 z m -1.173333,-0.75733 q -0.506666,0 -0.874666,-0.23467 -0.368,-0.23466 -0.570666,-0.66666 -0.197333,-0.432 -0.197333,-1.024 0,-0.448 0.111999,-0.8 0.112,-0.35733 0.325334,-0.60267 0.213333,-0.25066 0.517333,-0.384 0.303999,-0.13333 0.687999,-0.13333 0.512,0 0.88,0.23467 0.373333,0.22933 0.570666,0.66133 0.197333,0.42667 0.197333,1.01867 0,0.448 -0.117333,0.80533 -0.112,0.35733 -0.325333,0.608 -0.213333,0.25066 -0.517333,0.384 -0.304,0.13333 -0.688,0.13333 z m 0,-0.21867 q 0.448,0 0.762666,-0.19733 0.314667,-0.20267 0.48,-0.58133 0.165333,-0.384 0.165333,-0.928 0,-0.81067 -0.367999,-1.25333 -0.362667,-0.448 -1.04,-0.448 -0.442666,0 -0.757333,0.20266 -0.314666,0.19734 -0.479999,0.58134 -0.165334,0.37866 -0.165334,0.91733 0,0.80533 0.368,1.25866 0.368,0.448 1.034666,0.448 z"
     id="text4"
     style="font-weight:200;font-size:5.33333px;font-family:Nunito;-inkscape-font-specification:'Nunito Ultra-Light';fill:#00ffff;stroke:#585858;stroke-width:0.5;stroke-linejoin:round;paint-order:markers fill stroke"
     aria-label="FREQ" /><path
     d="m 39.678004,266.48512 q -0.05867,0 -0.096,-0.032 -0.03733,-0.032 -0.064,-0.0907 l -1.530666,-3.56267 q -0.016,-0.048 -0.01067,-0.0747 0.01067,-0.032 0.03733,-0.048 0.032,-0.016 0.06933,-0.016 0.048,0 0.07467,0.0267 0.02667,0.0213 0.048,0.064 l 1.536,3.57334 h -0.122667 l 1.530666,-3.57334 q 0.02133,-0.0427 0.048,-0.064 0.032,-0.0267 0.08,-0.0267 0.04267,0 0.064,0.0213 0.02667,0.016 0.032,0.048 0.0053,0.0267 -0.01067,0.0693 l -1.530666,3.56267 q -0.02133,0.0587 -0.05867,0.0907 -0.03733,0.032 -0.096,0.032 z m 3.696,0.0107 q -0.506667,0 -0.874666,-0.23466 -0.368,-0.23467 -0.570667,-0.66667 -0.197333,-0.432 -0.197333,-1.024 0,-0.448 0.112,-0.8 0.112,-0.35733 0.325333,-0.60267 0.213333,-0.25066 0.517333,-0.384 0.304,-0.13333 0.688,-0.13333 0.511999,0 0.879999,0.23467 0.373333,0.22933 0.570666,0.66133 0.197334,0.42667 0.197334,1.01867 0,0.448 -0.117334,0.80533 -0.112,0.35733 -0.325333,0.608 -0.213333,0.25067 -0.517333,0.384 -0.304,0.13333 -0.687999,0.13333 z m 0,-0.21866 q 0.447999,0 0.762666,-0.19734 0.314666,-0.20266 0.48,-0.58133 0.165333,-0.384 0.165333,-0.928 0,-0.81067 -0.368,-1.25333 -0.362666,-0.448 -1.039999,-0.448 -0.442667,0 -0.757333,0.20266 -0.314667,0.19734 -0.48,0.58134 -0.165333,0.37866 -0.165333,0.91733 0,0.80533 0.368,1.25867 0.367999,0.448 1.034666,0.448 z m 4.037328,0.21866 q -0.528,0 -0.901333,-0.22933 -0.373333,-0.23467 -0.576,-0.66667 -0.197333,-0.432 -0.197333,-1.02933 0,-0.448 0.112,-0.8 0.112,-0.35733 0.325333,-0.60267 0.218667,-0.25066 0.528,-0.384 0.314666,-0.13333 0.709333,-0.13333 0.362666,0 0.671999,0.112 0.314667,0.112 0.533333,0.32533 0.03733,0.0373 0.048,0.08 0.01067,0.0373 -0.0053,0.0693 -0.01067,0.032 -0.03733,0.0533 -0.02667,0.016 -0.064,0.0107 -0.03733,-0.005 -0.08,-0.0427 -0.213333,-0.19733 -0.48,-0.29333 -0.261333,-0.096 -0.592,-0.096 -0.458666,0 -0.778666,0.20266 -0.32,0.19734 -0.485333,0.58134 -0.165333,0.37866 -0.165333,0.91733 0,0.544 0.165333,0.928 0.165333,0.37867 0.485333,0.58133 0.32,0.19734 0.778666,0.19734 0.32,0 0.586667,-0.096 0.266666,-0.10134 0.485333,-0.29867 0.04267,-0.0373 0.08,-0.0373 0.03733,-0.005 0.064,0.016 0.02667,0.016 0.03733,0.048 0.016,0.032 0.01067,0.0693 -0.0053,0.0373 -0.04267,0.0693 -0.234666,0.224 -0.538666,0.336 -0.304,0.112 -0.677333,0.112 z m 3.034662,-0.0107 q -0.05333,0 -0.08533,-0.032 -0.02667,-0.032 -0.02667,-0.0853 v -3.46666 h -1.349332 q -0.05333,0 -0.08533,-0.0267 -0.032,-0.032 -0.032,-0.08 0,-0.048 0.032,-0.0747 0.032,-0.0267 0.08533,-0.0267 h 2.922665 q 0.05867,0 0.08533,0.0267 0.032,0.0267 0.032,0.0747 0,0.0533 -0.032,0.08 -0.02667,0.0267 -0.08533,0.0267 h -1.349333 v 3.46666 q 0,0.0533 -0.02667,0.0853 -0.02667,0.032 -0.08533,0.032 z"
     id="text5"
     style="font-weight:200;font-size:5.33333px;font-family:Nunito;-inkscape-font-specification:'Nunito Ultra-Light';fill:#00ffff;stroke:#585858;stroke-width:0.5;stroke-linejoin:round;paint-order:markers fill stroke"
     aria-label="VOCT" /><path
     d="m 41.298226,326.39029 q -0.266667,0 -0.506666,-0.048 -0.24,-0.048 -0.448,-0.13866 -0.202667,-0.0907 -0.368,-0.224 -0.03733,-0.032 -0.05333,-0.0693 -0.01067,-0.0373 0,-0.0693 0.016,-0.0373 0.04267,-0.0587 0.02667,-0.0213 0.064,-0.0213 0.03733,0 0.07467,0.032 0.250667,0.19733 0.528,0.288 0.282666,0.0907 0.666666,0.0907 0.533333,0 0.8,-0.21334 0.271999,-0.21333 0.271999,-0.56533 0,-0.288 -0.197333,-0.448 -0.197333,-0.16533 -0.645333,-0.256 l -0.527999,-0.10667 q -0.501334,-0.10133 -0.746667,-0.336 -0.245333,-0.23466 -0.245333,-0.63466 0,-0.24 0.09067,-0.432 0.096,-0.19734 0.266666,-0.336 0.170667,-0.144 0.405333,-0.21867 0.234667,-0.08 0.517333,-0.08 0.352,0 0.645333,0.10667 0.293333,0.10133 0.533333,0.32 0.03733,0.032 0.048,0.0747 0.01067,0.0373 -0.0053,0.0747 -0.01067,0.032 -0.03733,0.0533 -0.02133,0.016 -0.05867,0.016 -0.03733,0 -0.07467,-0.0373 -0.229333,-0.20267 -0.485333,-0.29333 -0.256,-0.096 -0.565333,-0.096 -0.314666,0 -0.549333,0.10666 -0.234666,0.10134 -0.367999,0.29334 -0.128,0.192 -0.128,0.448 0,0.30933 0.181333,0.49066 0.181333,0.176 0.586666,0.256 l 0.528,0.10667 q 0.544,0.112 0.805333,0.33067 0.261333,0.21333 0.261333,0.592 0,0.224 -0.09067,0.41066 -0.09067,0.18134 -0.261333,0.31467 -0.165333,0.13333 -0.410666,0.208 -0.24,0.0693 -0.544,0.0693 z m 4.719999,0.75734 q 0.032,0.048 0.032,0.0853 0,0.0427 -0.02133,0.0693 -0.02133,0.0267 -0.05867,0.032 -0.032,0.0107 -0.06933,-0.0107 -0.032,-0.016 -0.064,-0.064 l -0.32,-0.51734 q -0.101333,-0.17066 -0.272,-0.26133 -0.170666,-0.0907 -0.399999,-0.0907 l 0.213333,-0.10666 q 0.256,0 0.394666,0.0853 0.144,0.0907 0.293333,0.34133 z m -1.173332,-0.75734 q -0.506667,0 -0.874667,-0.23466 -0.367999,-0.23467 -0.570666,-0.66667 -0.197333,-0.432 -0.197333,-1.024 0,-0.448 0.112,-0.8 0.112,-0.35733 0.325333,-0.60267 0.213333,-0.25066 0.517333,-0.384 0.304,-0.13333 0.688,-0.13333 0.511999,0 0.879999,0.23467 0.373333,0.22933 0.570666,0.66133 0.197334,0.42667 0.197334,1.01867 0,0.448 -0.117334,0.80533 -0.112,0.35733 -0.325333,0.608 -0.213333,0.25067 -0.517333,0.384 -0.304,0.13333 -0.687999,0.13333 z m 0,-0.21866 q 0.447999,0 0.762666,-0.19734 0.314666,-0.20266 0.479999,-0.58133 0.165334,-0.384 0.165334,-0.928 0,-0.81067 -0.368,-1.25333 -0.362667,-0.448 -1.039999,-0.448 -0.442667,0 -0.757333,0.20266 -0.314667,0.19734 -0.48,0.58134 -0.165333,0.37866 -0.165333,0.91733 0,0.80533 0.367999,1.25867 0.368,0.448 1.034667,0.448 z m 2.629328,0.208 q -0.05333,0 -0.08533,-0.032 -0.02667,-0.032 -0.02667,-0.0853 V 322.705 q 0,-0.0587 0.032,-0.0853 0.032,-0.032 0.08533,-0.032 h 1.242666 q 0.591999,0 0.906666,0.272 0.314666,0.272 0.314666,0.77866 0,0.32534 -0.144,0.56 -0.144,0.22934 -0.421333,0.352 -0.272,0.11734 -0.655999,0.11734 l 0.05867,-0.064 h 0.04267 q 0.202666,0 0.346666,0.10666 0.149333,0.10667 0.277333,0.34667 l 0.613333,1.14133 q 0.02667,0.0427 0.02133,0.0853 0,0.0427 -0.02667,0.0693 -0.02133,0.0267 -0.05867,0.0267 -0.048,0 -0.08,-0.0267 -0.02667,-0.0213 -0.048,-0.0587 l -0.618667,-1.152 q -0.149333,-0.27733 -0.330666,-0.368 -0.181333,-0.0907 -0.496,-0.0907 h -0.837333 v 1.57866 q 0,0.0533 -0.02667,0.0853 -0.02667,0.032 -0.08533,0.032 z m 0.112,-1.904 h 1.114666 q 0.506667,0 0.757333,-0.21334 0.250667,-0.21333 0.250667,-0.62933 0,-0.41067 -0.250667,-0.624 -0.250666,-0.21333 -0.757333,-0.21333 h -1.114666 z"
     id="text6"
     style="font-weight:200;font-size:5.33333px;font-family:Nunito;-inkscape-font-specification:'Nunito Ultra-Light';fill:#00ffff;stroke:#585858;stroke-width:0.5;stroke-linejoin:round;paint-order:markers fill stroke"
     aria-label="SQR" /><path
     d="m 102.89601,326.85341 q -0.0533,0 -0.0853,-0.032 -0.0267,-0.032 -0.0267,-0.0853 v -3.46667 h -1.34933 q -0.0533,0 -0.0853,-0.0267 -0.032,-0.032 -0.032,-0.08 0,-0.048 0.032,-0.0747 0.032,-0.0267 0.0853,-0.0267 h 2.92266 q 0.0587,0 0.0853,0.0267 0.032,0.0267 0.032,0.0747 0,0.0533 -0.032,0.08 -0.0267,0.0267 -0.0853,0.0267 h -1.34933 v 3.46667 q 0,0.0533 -0.0267,0.0853 -0.0267,0.032 -0.0853,0.032 z m 2.18667,0 q -0.0533,0 -0.0853,-0.032 -0.0267,-0.032 -0.0267,-0.0853 v -3.55733 q 0,-0.0587 0.032,-0.0853 0.032,-0.032 0.0853,-0.032 h 1.24267 q 0.592,0 0.90666,0.272 0.31467,0.272 0.31467,0.77867 0,0.32533 -0.144,0.56 -0.144,0.22933 -0.42133,0.352 -0.272,0.11733 -0.656,0.11733 l 0.0587,-0.064 h 0.0427 q 0.20267,0 0.34667,0.10667 0.14933,0.10667 0.27733,0.34667 l 0.61333,1.14133 q 0.0267,0.0427 0.0213,0.0853 0,0.0427 -0.0267,0.0693 -0.0213,0.0267 -0.0587,0.0267 -0.048,0 -0.08,-0.0267 -0.0267,-0.0213 -0.048,-0.0587 l -0.61866,-1.152 q -0.14934,-0.27733 -0.33067,-0.368 -0.18133,-0.0907 -0.496,-0.0907 h -0.83733 v 1.57867 q 0,0.0533 -0.0267,0.0853 -0.0267,0.032 -0.0853,0.032 z m 0.112,-1.904 h 1.11466 q 0.50667,0 0.75734,-0.21333 0.25066,-0.21333 0.25066,-0.62933 0,-0.41067 -0.25066,-0.624 -0.25067,-0.21334 -0.75734,-0.21334 h -1.11466 z m 3.37599,1.904 q -0.0533,0 -0.0853,-0.032 -0.0267,-0.032 -0.0267,-0.0853 v -3.58933 q 0,-0.0587 0.0267,-0.0853 0.032,-0.032 0.0853,-0.032 0.0533,0 0.08,0.032 0.032,0.0267 0.032,0.0853 v 3.58933 q 0,0.0533 -0.0267,0.0853 -0.0267,0.032 -0.0853,0.032 z"
     id="text7"
     style="font-weight:200;font-size:5.33333px;font-family:Nunito;-inkscape-font-specification:'Nunito Ultra-Light';fill:#00ffff;stroke:#585858;stroke-width:0.5;stroke-linejoin:round;paint-order:markers fill stroke"
     aria-label="TRI" /><path
     d="m 101.97067,266.48512 q -0.064,0 -0.10133,-0.032 -0.032,-0.0373 -0.032,-0.10133 v -3.52533 q 0,-0.064 0.032,-0.096 0.0373,-0.0373 0.10133,-0.0373 h 1.99467 q 0.0533,0 0.08,0.0267 0.032,0.0267 0.032,0.0747 0,0.0533 -0.032,0.08 -0.0267,0.0267 -0.08,0.0267 h -1.904 v 1.54133 h 1.79733 q 0.0533,0 0.08,0.0267 0.032,0.0267 0.032,0.0747 0,0.0533 -0.032,0.08 -0.0267,0.0267 -0.08,0.0267 h -1.79733 v 1.70133 q 0,0.13333 -0.0907,0.13333 z m 2.84266,0 q -0.048,0 -0.08,-0.032 -0.0267,-0.032 -0.0267,-0.0853 v -3.58933 q 0,-0.0587 0.0267,-0.0853 0.0267,-0.032 0.0693,-0.032 0.048,0 0.0747,0.0213 0.0267,0.0213 0.048,0.064 l 1.58934,3.02933 h -0.14934 l 1.57867,-3.02933 q 0.0267,-0.0427 0.048,-0.064 0.0267,-0.0213 0.0747,-0.0213 0.0427,0 0.0693,0.032 0.0267,0.0267 0.0267,0.0853 v 3.58933 q 0,0.0533 -0.0267,0.0853 -0.0267,0.032 -0.0747,0.032 -0.0533,0 -0.08,-0.032 -0.0267,-0.032 -0.0267,-0.0853 v -3.46133 h 0.128 l -1.52,2.90667 q -0.0213,0.0427 -0.048,0.064 -0.0213,0.0213 -0.0693,0.0213 -0.048,0 -0.0747,-0.0213 -0.0267,-0.0267 -0.048,-0.064 l -1.54134,-2.912 h 0.13334 v 3.46666 q 0,0.0533 -0.0267,0.0853 -0.0267,0.032 -0.0747,0.032 z"
     id="text8"
     style="font-weight:200;font-size:5.33333px;font-family:Nunito;-inkscape-font-specification:'Nunito Ultra-Light';fill:#00ffff;stroke:#585858;stroke-width:0.5;stroke-linejoin:round;paint-order:markers fill stroke"
     aria-label="FM" /><path
     d="m 69.981339,240.4471 q -0.064,0 -0.101333,-0.032 -0.032,-0.0373 -0.032,-0.10133 v -3.52533 q 0,-0.064 0.032,-0.096 0.03733,-0.0373 0.101333,-0.0373 h 1.994666 q 0.05333,0 0.08,0.0267 0.032,0.0267 0.032,0.0747 0,0.0533 -0.032,0.08 -0.02667,0.0267 -0.08,0.0267 h -1.903999 v 1.54133 h 1.797332 q 0.05333,0 0.08,0.0267 0.032,0.0267 0.032,0.0747 0,0.0533 -0.032,0.08 -0.02667,0.0267 -0.08,0.0267 h -1.797332 v 1.70134 q 0,0.13333 -0.09067,0.13333 z m 2.837328,0 q -0.05333,0 -0.08533,-0.032 -0.02667,-0.032 -0.02667,-0.0853 v -3.58933 q 0,-0.0587 0.02667,-0.0853 0.032,-0.032 0.08533,-0.032 0.05333,0 0.08,0.032 0.032,0.0267 0.032,0.0853 v 3.58933 q 0,0.0533 -0.02667,0.0853 -0.02667,0.032 -0.08533,0.032 z m 1.242662,0 q -0.048,0 -0.08,-0.032 -0.02667,-0.032 -0.02667,-0.0853 v -3.584 q 0,-0.0587 0.02667,-0.0907 0.02667,-0.032 0.06933,-0.032 0.048,0 0.06933,0.016 0.02667,0.016 0.05333,0.0587 l 2.570665,3.49333 h -0.117333 v -3.45066 q 0,-0.0587 0.02667,-0.0853 0.032,-0.032 0.08,-0.032 0.048,0 0.07467,0.032 0.02667,0.0267 0.02667,0.0853 v 3.58399 q 0,0.0587 -0.02667,0.0907 -0.02133,0.032 -0.064,0.032 -0.03733,0 -0.06933,-0.0213 -0.02667,-0.016 -0.05333,-0.0533 l -2.570665,-3.49333 h 0.112 v 3.45067 q 0,0.0533 -0.02667,0.0853 -0.02667,0.032 -0.07467,0.032 z m 3.930666,-0.032 q -0.064,0 -0.101333,-0.032 -0.032,-0.0373 -0.032,-0.10133 v -3.49333 q 0,-0.064 0.032,-0.096 0.03733,-0.0373 0.101333,-0.0373 h 2.047999 q 0.05333,0 0.08,0.0267 0.032,0.0267 0.032,0.0747 0,0.0533 -0.032,0.08 -0.02667,0.0267 -0.08,0.0267 h -1.957332 v 1.54133 h 1.850666 q 0.05333,0 0.08,0.0267 0.032,0.0267 0.032,0.0747 0,0.0533 -0.032,0.08 -0.02667,0.0267 -0.08,0.0267 h -1.850666 v 1.59467 h 1.957332 q 0.05333,0 0.08,0.0267 0.032,0.0267 0.032,0.0747 0,0.0533 -0.032,0.08 -0.02667,0.0267 -0.08,0.0267 z"
     id="text9"
     style="font-weight:200;font-size:5.33333px;font-family:Nunito;-inkscape-font-specification:'Nunito Ultra-Light';fill:#00ffff;stroke:#585858;stroke-width:0.5;stroke-linejoin:round;paint-order:markers fill stroke"
     aria-label="FINE" /></g></svg>
