<?xml version="1.0" encoding="UTF-8" standalone="no"?>
<svg
   width="60"
   height="380"
   viewBox="0 0 60 380"
   version="1.1"
   xml:space="preserve"
   id="svg2"
   sodipodi:docname="Blank-dark.svg"
   inkscape:version="1.4 (86a8ad7, 2024-10-11)"
   xmlns:inkscape="http://www.inkscape.org/namespaces/inkscape"
   xmlns:sodipodi="http://sodipodi.sourceforge.net/DTD/sodipodi-0.dtd"
   xmlns="http://www.w3.org/2000/svg"
   xmlns:svg="http://www.w3.org/2000/svg"><defs
   id="defs1" /><sodipodi:namedview
   id="namedview1"
   pagecolor="#ffffff"
   bordercolor="#000000"
   borderopacity="0.25"
   inkscape:showpageshadow="2"
   inkscape:pageopacity="0.0"
   inkscape:pagecheckerboard="0"
   inkscape:deskcolor="#d1d1d1"
   inkscape:zoom="2.8284271"
   inkscape:cx="30.582368"
   inkscape:cy="132.22897"
   inkscape:window-width="1776"
   inkscape:window-height="1220"
   inkscape:window-x="136"
   inkscape:window-y="76"
   inkscape:window-maximized="0"
   inkscape:current-layer="g2" />

<rect
   id="panel"
   style="fill:#242424;fill-opacity:1"
   x="0"
   y="0"
   width="60"
   height="380" />

<!-- Logo -->


<!-- Knobs -->



<!-- Input Jacks -->
<circle
   id="Input"
   cx="30"
   cy="35.136379"
   r="8"
   style="fill:#404040"
   inkscape:label="Input" />
<circle
   id="Output1"
   cx="40.613102"
   cy="75.700775"
   r="8"
   style="fill:#404040"
   inkscape:label="Output1" /><circle
   id="Toggle1"
   cx="16.08074"
   cy="75.700775"
   r="4.693841"
   style="fill:#404040;stroke-width:0.58673"
   inkscape:label="Toggle1" /><circle
   id="Screw1"
   cx="22"
   cy="7"
   style="fill:#285856;fill-opacity:1;stroke-width:0.499994"
   inkscape:label="Screw1"
   r="4" /><circle
   id="Screw2"
   cx="38"
   cy="7"
   style="fill:#285856;fill-opacity:1;stroke-width:0.499994"
   inkscape:label="Screw2"
   r="4" /><circle
   id="Screw3"
   cx="22"
   cy="372"
   style="fill:#285856;fill-opacity:1;stroke-width:0.499994"
   inkscape:label="Screw3"
   r="4" /><circle
   id="Screw4"
   cx="38"
   cy="372"
   style="fill:#285856;fill-opacity:1;stroke-width:0.499994"
   inkscape:label="Screw4"
   r="4" /><circle
   id="Output2"
   cx="40.613102"
   cy="114.40198"
   r="8"
   style="fill:#404040"
   inkscape:label="Output2" /><circle
   id="Toggle2"
   cx="16.08074"
   cy="114.40198"
   r="4.693841"
   style="fill:#404040;stroke-width:0.58673"
   inkscape:label="Toggle2" /><circle
   id="Output3"
   cx="40.613102"
   cy="153.10318"
   r="8"
   style="fill:#404040"
   inkscape:label="Output3" /><circle
   id="Toggle3"
   cx="16.08074"
   cy="153.10318"
   r="4.693841"
   style="fill:#404040;stroke-width:0.58673"
   inkscape:label="Toggle3" /><circle
   id="Output4"
   cx="40.613102"
   cy="191.80438"
   r="8"
   style="fill:#404040"
   inkscape:label="Output4" /><circle
   id="Toggle4"
   cx="16.08074"
   cy="191.80438"
   r="4.693841"
   style="fill:#404040;stroke-width:0.58673"
   inkscape:label="Toggle4" /><circle
   id="Output5"
   cx="40.613102"
   cy="230.50558"
   r="8"
   style="fill:#404040"
   inkscape:label="Output5" /><circle
   id="Toggle5"
   cx="16.08074"
   cy="230.50558"
   r="4.693841"
   style="fill:#404040;stroke-width:0.58673"
   inkscape:label="Toggle5" /><circle
   id="Output6"
   cx="40.613102"
   cy="269.20679"
   r="8"
   style="fill:#404040"
   inkscape:label="Output6" /><circle
   id="Toggle6"
   cx="16.08074"
   cy="269.20679"
   r="4.693841"
   style="fill:#404040;stroke-width:0.58673"
   inkscape:label="Toggle6" /><circle
   id="Output7"
   cx="40.613102"
   cy="307.90799"
   r="8"
   style="fill:#404040"
   inkscape:label="Output7" /><circle
   id="Toggle7"
   cx="16.08074"
   cy="307.90799"
   r="4.693841"
   style="fill:#404040;stroke-width:0.58673"
   inkscape:label="Toggle7" /><circle
   id="Output8"
   cx="40.613102"
   cy="346.60919"
   r="8"
   style="fill:#404040"
   inkscape:label="Output8" /><circle
   id="Toggle8"
   cx="16.08074"
   cy="346.60919"
   r="4.693841"
   style="fill:#404040;stroke-width:0.58673"
   inkscape:label="Toggle8" />

<!-- Output Jacks -->



<!-- Lights -->



<g
   inkscape:groupmode="layer"
   id="layer1"
   inkscape:label="Text"><text
     xml:space="preserve"
     style="font-style:normal;font-variant:normal;font-weight:200;font-stretch:normal;font-size:5.33333px;font-family:Nunito;-inkscape-font-specification:'Nunito Ultra-Light';text-align:start;writing-mode:lr-tb;direction:ltr;text-anchor:start;fill:#00ffff;stroke:#e3e3e3;stroke-width:0.5;stroke-linejoin:round;stroke-dasharray:none;paint-order:markers fill stroke;stroke-opacity:1"
     x="27.424004"
     y="21.589504"
     id="text2-45"><tspan
       sodipodi:role="line"
       id="tspan2-5"
       x="27.424004"
       y="21.589504">IN</tspan></text><text
     xml:space="preserve"
     style="font-style:normal;font-variant:normal;font-weight:200;font-stretch:normal;font-size:5.33333px;font-family:Nunito;-inkscape-font-specification:'Nunito Ultra-Light';text-align:start;writing-mode:lr-tb;direction:ltr;text-anchor:start;fill:#00ffff;stroke:#e3e3e3;stroke-width:0.5;stroke-linejoin:round;stroke-dasharray:none;paint-order:markers fill stroke;stroke-opacity:1"
     x="34.941109"
     y="62.153896"
     id="text2-45-1"><tspan
       sodipodi:role="line"
       id="tspan2-5-1"
       x="34.941109"
       y="62.153896">OUT</tspan></text></g><g
   inkscape:groupmode="layer"
   id="g2"
   inkscape:label="Text"><path
     d="m 28.048003,21.621504 q -0.05333,0 -0.08533,-0.032 -0.02667,-0.032 -0.02667,-0.08533 V 17.91484 q 0,-0.05867 0.02667,-0.08533 0.032,-0.032 0.08533,-0.032 0.05333,0 0.08,0.032 0.032,0.02667 0.032,0.08533 v 3.589331 q 0,0.05333 -0.02667,0.08533 -0.02667,0.032 -0.08533,0.032 z m 1.242662,0 q -0.048,0 -0.08,-0.032 -0.02667,-0.032 -0.02667,-0.08533 v -3.583998 q 0,-0.05867 0.02667,-0.09067 0.02667,-0.032 0.06933,-0.032 0.048,0 0.06933,0.016 0.02667,0.016 0.05333,0.05867 l 2.570665,3.493331 H 31.855997 V 17.91484 q 0,-0.05867 0.02667,-0.08533 0.032,-0.032 0.08,-0.032 0.048,0 0.07467,0.032 0.02667,0.02667 0.02667,0.08533 v 3.583998 q 0,0.05867 -0.02667,0.09067 -0.02133,0.032 -0.064,0.032 -0.03733,0 -0.06933,-0.02133 -0.02667,-0.016 -0.05333,-0.05333 l -2.570666,-3.493332 h 0.112 v 3.450665 q 0,0.05333 -0.02667,0.08533 -0.02667,0.032 -0.07467,0.032 z"
     id="text1"
     style="font-weight:200;font-size:5.33333px;font-family:Nunito;-inkscape-font-specification:'Nunito Ultra-Light';fill:#00ffff;stroke:#e3e3e3;stroke-width:0.5;stroke-linejoin:round;paint-order:markers fill stroke"
     aria-label="IN" /><path
     d="m 36.941108,62.196563 q -0.506667,0 -0.874667,-0.234667 -0.367999,-0.234666 -0.570666,-0.666666 -0.197333,-0.432 -0.197333,-1.023999 0,-0.448 0.112,-0.8 0.112,-0.357333 0.325333,-0.602666 0.213333,-0.250667 0.517333,-0.384 0.304,-0.133333 0.688,-0.133333 0.511999,0 0.879999,0.234666 0.373333,0.229334 0.570666,0.661333 0.197334,0.426667 0.197334,1.018666 0,0.448 -0.117334,0.805333 -0.112,0.357333 -0.325333,0.608 -0.213333,0.250666 -0.517333,0.384 -0.304,0.133333 -0.687999,0.133333 z m 0,-0.218667 q 0.447999,0 0.762666,-0.197333 0.314666,-0.202666 0.479999,-0.581333 0.165334,-0.384 0.165334,-0.927999 0,-0.810666 -0.368,-1.253333 -0.362667,-0.448 -1.039999,-0.448 -0.442667,0 -0.757333,0.202667 -0.314667,0.197333 -0.48,0.581333 -0.165333,0.378666 -0.165333,0.917333 0,0.805333 0.367999,1.258666 0.368,0.447999 1.034667,0.447999 z m 3.925328,0.218667 q -0.352,0 -0.624,-0.096 -0.266666,-0.096 -0.448,-0.282666 -0.176,-0.192 -0.271999,-0.469334 -0.09067,-0.277333 -0.09067,-0.639999 v -2.229332 q 0,-0.05867 0.02667,-0.08533 0.032,-0.032 0.08533,-0.032 0.05333,0 0.08,0.032 0.032,0.02667 0.032,0.08533 v 2.197332 q 0,0.655999 0.304,0.981333 0.309333,0.319999 0.906666,0.319999 0.602666,0 0.906666,-0.319999 0.304,-0.325334 0.304,-0.981333 v -2.197332 q 0,-0.05867 0.02667,-0.08533 0.032,-0.032 0.08533,-0.032 0.05333,0 0.08,0.032 0.032,0.02667 0.032,0.08533 v 2.229332 q 0,0.48 -0.165334,0.815999 -0.16,0.330667 -0.479999,0.501333 -0.32,0.170667 -0.789333,0.170667 z m 3.482661,-0.01067 q -0.05333,0 -0.08533,-0.032 -0.02667,-0.032 -0.02667,-0.08533 v -3.466665 h -1.349333 q -0.05333,0 -0.08533,-0.02667 -0.032,-0.032 -0.032,-0.08 0,-0.048 0.032,-0.07467 0.032,-0.02667 0.08533,-0.02667 h 2.922665 q 0.05867,0 0.08533,0.02667 0.032,0.02667 0.032,0.07467 0,0.05333 -0.032,0.08 -0.02667,0.02667 -0.08533,0.02667 h -1.349332 v 3.466665 q 0,0.05333 -0.02667,0.08533 -0.02667,0.032 -0.08533,0.032 z"
     id="text2"
     style="font-weight:200;font-size:5.33333px;font-family:Nunito;-inkscape-font-specification:'Nunito Ultra-Light';fill:#00ffff;stroke:#e3e3e3;stroke-width:0.5;stroke-linejoin:round;paint-order:markers fill stroke"
     aria-label="OUT" /></g></svg>
